<mxfile host="app.diagrams.net" modified="2024-05-02T06:08:40.363Z" agent="Mozilla/5.0 (Windows NT 10.0; Win64; x64) AppleWebKit/537.36 (KHTML, like Gecko) Chrome/124.0.0.0 Safari/537.36 Edg/124.0.0.0" etag="ZkX5zpoU7xeEquJT68N1" version="24.3.1" type="github">
  <diagram name="第 1 页" id="AjFvSEF1wlUyc99DKZU8">
    <mxGraphModel dx="746" dy="459" grid="1" gridSize="10" guides="1" tooltips="1" connect="1" arrows="1" fold="1" page="1" pageScale="1" pageWidth="827" pageHeight="1169" math="0" shadow="0">
      <root>
        <mxCell id="0" />
        <mxCell id="1" parent="0" />
        <mxCell id="yJYB7iB9x3kxcfTRjZP5-1" value="温湿度传感器" style="rounded=1;whiteSpace=wrap;html=1;" vertex="1" parent="1">
          <mxGeometry x="60" y="200" width="150" height="40" as="geometry" />
        </mxCell>
        <mxCell id="yJYB7iB9x3kxcfTRjZP5-2" value="土壤湿度传感器" style="rounded=1;whiteSpace=wrap;html=1;" vertex="1" parent="1">
          <mxGeometry x="60" y="260" width="150" height="40" as="geometry" />
        </mxCell>
        <mxCell id="yJYB7iB9x3kxcfTRjZP5-3" value="土壤温度传感器" style="rounded=1;whiteSpace=wrap;html=1;" vertex="1" parent="1">
          <mxGeometry x="60" y="320" width="150" height="40" as="geometry" />
        </mxCell>
        <mxCell id="yJYB7iB9x3kxcfTRjZP5-4" value="光照传感器" style="rounded=1;whiteSpace=wrap;html=1;" vertex="1" parent="1">
          <mxGeometry x="60" y="380" width="150" height="40" as="geometry" />
        </mxCell>
        <mxCell id="yJYB7iB9x3kxcfTRjZP5-5" value="蜂鸣器" style="rounded=1;whiteSpace=wrap;html=1;" vertex="1" parent="1">
          <mxGeometry x="60" y="440" width="150" height="40" as="geometry" />
        </mxCell>
        <mxCell id="yJYB7iB9x3kxcfTRjZP5-6" value="&lt;span style=&quot;font-size: 18px;&quot;&gt;esp32 开发板&lt;/span&gt;" style="rounded=1;whiteSpace=wrap;html=1;" vertex="1" parent="1">
          <mxGeometry x="260" y="170" width="210" height="340" as="geometry" />
        </mxCell>
      </root>
    </mxGraphModel>
  </diagram>
</mxfile>
